<mxfile host="app.diagrams.net" modified="2023-06-24T12:53:56.420Z" agent="Mozilla/5.0 (X11; Linux x86_64) AppleWebKit/537.36 (KHTML, like Gecko) Chrome/114.0.0.0 Safari/537.36" version="21.5.0" etag="j4eucUzQTXsUIo6DP3dq" type="github">
  <diagram name="PÃ¡gina-1" id="AIXPM4m92-KiYcK76G-4">
    <mxGraphModel>
      <root>
        <mxCell id="0" />
        <mxCell id="1" parent="0" />
      </root>
    </mxGraphModel>
  </diagram>
</mxfile>
